<svg id="visual" viewBox="0 0 1920 1080" width="1920" height="1080" xmlns="http://www.w3.org/2000/svg" xmlns:xlink="http://www.w3.org/1999/xlink" version="1.1"><rect x="0" y="0" width="1920" height="1080" fill="#FFFFFF"></rect><defs><linearGradient id="grad1_0" x1="43.8%" y1="0%" x2="100%" y2="100%"><stop offset="14.444444444444446%" stop-color="#a7d8ff" stop-opacity="1"></stop><stop offset="85.55555555555554%" stop-color="#a7d8ff" stop-opacity="1"></stop></linearGradient></defs><defs><linearGradient id="grad1_1" x1="43.8%" y1="0%" x2="100%" y2="100%"><stop offset="14.444444444444446%" stop-color="#a7d8ff" stop-opacity="1"></stop><stop offset="85.55555555555554%" stop-color="#d5ebff" stop-opacity="1"></stop></linearGradient></defs><defs><linearGradient id="grad1_2" x1="43.8%" y1="0%" x2="100%" y2="100%"><stop offset="14.444444444444446%" stop-color="#ffffff" stop-opacity="1"></stop><stop offset="85.55555555555554%" stop-color="#d5ebff" stop-opacity="1"></stop></linearGradient></defs><defs><linearGradient id="grad2_0" x1="0%" y1="0%" x2="56.3%" y2="100%"><stop offset="14.444444444444446%" stop-color="#a7d8ff" stop-opacity="1"></stop><stop offset="85.55555555555554%" stop-color="#a7d8ff" stop-opacity="1"></stop></linearGradient></defs><defs><linearGradient id="grad2_1" x1="0%" y1="0%" x2="56.3%" y2="100%"><stop offset="14.444444444444446%" stop-color="#d5ebff" stop-opacity="1"></stop><stop offset="85.55555555555554%" stop-color="#a7d8ff" stop-opacity="1"></stop></linearGradient></defs><defs><linearGradient id="grad2_2" x1="0%" y1="0%" x2="56.3%" y2="100%"><stop offset="14.444444444444446%" stop-color="#d5ebff" stop-opacity="1"></stop><stop offset="85.55555555555554%" stop-color="#ffffff" stop-opacity="1"></stop></linearGradient></defs><g transform="translate(1920, 0)"><path d="M0 1080C-141 1067.9 -282.1 1055.8 -413.3 997.8C-544.5 939.8 -665.9 835.9 -712.1 712.1C-758.2 588.2 -729.1 444.2 -777.9 322.2C-826.7 200.2 -953.3 100.1 -1080 0L0 0Z" fill="#eaf5ff"></path><path d="M0 720C-94 711.9 -188.1 703.8 -275.5 665.2C-363 626.5 -443.9 557.3 -474.7 474.7C-505.5 392.1 -486.1 296.2 -518.6 214.8C-551.1 133.5 -635.6 66.7 -720 0L0 0Z" fill="#bfe2ff"></path><path d="M0 360C-47 356 -94 351.9 -137.8 332.6C-181.5 313.3 -222 278.6 -237.4 237.4C-252.7 196.1 -243 148.1 -259.3 107.4C-275.6 66.7 -317.8 33.4 -360 0L0 0Z" fill="#a7d8ff"></path></g><g transform="translate(0, 1080)"><path d="M0 -1080C123 -1002.6 246 -925.3 357 -862C468.1 -798.7 567.2 -749.5 682.4 -682.4C797.5 -615.2 928.8 -530 997.8 -413.3C1066.7 -296.6 1073.4 -148.3 1080 0L0 0Z" fill="#eaf5ff"></path><path d="M0 -720C82 -668.4 164 -616.8 238 -574.7C312.1 -532.5 378.1 -499.7 454.9 -454.9C531.7 -410.1 619.2 -353.3 665.2 -275.5C711.2 -197.7 715.6 -98.9 720 0L0 0Z" fill="#bfe2ff"></path><path d="M0 -360C41 -334.2 82 -308.4 119 -287.3C156 -266.2 189.1 -249.8 227.5 -227.5C265.8 -205.1 309.6 -176.7 332.6 -137.8C355.6 -98.9 357.8 -49.4 360 0L0 0Z" fill="#a7d8ff"></path></g></svg>